<?xml version="1.0" encoding="UTF-8"?>
<svg width="301px" height="302px" viewBox="0 0 301 302" version="1.1" xmlns="http://www.w3.org/2000/svg" xmlns:xlink="http://www.w3.org/1999/xlink">
    <!-- Generator: Sketch 55.2 (78181) - https://sketchapp.com -->
    <title>Slice</title>
    <desc>Created with Sketch.</desc>
    <g id="Annonse" stroke="none" stroke-width="1" fill="none" fill-rule="evenodd">
        <ellipse id="Oval" fill="#003058" cx="149.5" cy="151" rx="150.5" ry="151"></ellipse>
        <path d="M58,221 L58,83 L63.92,83 L63.92,221 L58,221 Z M67.62,221 L67.62,83 L71.32,83 L71.32,221 L67.62,221 Z M77.24,221 L77.24,83 L80.94,83 L80.94,221 L77.24,221 Z M93.52,221 L93.52,83 L97.22,83 L97.22,221 L93.52,221 Z M106.84,221 L106.84,83 L112.76,83 L112.76,221 L106.84,221 Z M122.38,221 L122.38,83 L126.08,83 L126.08,221 L122.38,221 Z M129.78,221 L129.78,83 L133.48,83 L133.48,221 L129.78,221 Z M135.7,221 L135.7,83 L139.4,83 L139.4,221 L135.7,221 Z M149.02,221 L149.02,83 L154.94,83 L154.94,221 L149.02,221 L149.02,221 Z M165.3,221 L165.3,83 L171.22,83 L171.22,221 L165.3,221 Z M177.88,221 L177.88,83 L183.8,83 L183.8,221 L177.88,221 Z M191.94,221 L191.94,83 L197.86,83 L197.86,221 L191.94,221 Z M200.82,221 L200.82,83 L206.74,83 L206.74,221 L200.82,221 Z M217.1,221 L217.1,83 L226.72,83 L226.72,221 L217.1,221 Z M229.68,221 L229.68,83 L233.38,83 L233.38,221 L229.68,221 L229.68,221 Z M237.08,221 L237.08,83 L243,83 L243,221 L237.08,221 L237.08,221 Z" id="Shape" fill="#FFFFFF" fill-rule="nonzero"></path>
    </g>
</svg>