<?xml version="1.0" encoding="UTF-8"?>
<svg width="250px" height="250px" viewBox="0 0 250 250" version="1.1" xmlns="http://www.w3.org/2000/svg" xmlns:xlink="http://www.w3.org/1999/xlink">
    <!-- Generator: Sketch 55.2 (78181) - https://sketchapp.com -->
    <title>Slice</title>
    <desc>Created with Sketch.</desc>
    <g id="Annonse" stroke="none" stroke-width="1" fill="none" fill-rule="evenodd">
        <path d="M125,0 C55.9642137,0 0,55.9642137 0,125 C0,194.035786 55.9642137,250 125,250 C194.035786,250 250,194.035786 250,125 C250,55.9642137 194.035786,0 125,0 Z M125,24.0963855 C180.765392,24.0963855 225.903614,69.2260316 225.903614,125 C225.903614,180.765392 180.773968,225.903614 125,225.903614 C69.2346084,225.903614 24.0963855,180.773968 24.0963855,125 C24.0963855,69.2346084 69.2260316,24.0963855 125,24.0963855 L125,24.0963855 Z M196.039977,90.5001308 L184.70187,79.0914799 C182.353852,76.7286969 178.531216,76.7131292 176.164079,79.0573312 L105.048351,149.471778 L74.9663457,119.201541 C72.6183273,116.838758 68.7956909,116.82319 66.4285542,119.16689 L54.9983783,130.484143 C52.6312417,132.827843 52.6156452,136.643449 54.9641668,139.006734 L100.637075,184.964745 C102.985093,187.327528 106.80773,187.343096 109.174866,184.998894 L196.006269,99.0227215 C198.372902,96.6785194 198.387995,92.8629138 196.039977,90.5001308 L196.039977,90.5001308 Z" id="Shape" fill="#1BB776" fill-rule="nonzero"></path>
    </g>
</svg>