<?xml version="1.0" encoding="UTF-8"?>
<svg width="301px" height="302px" viewBox="0 0 301 302" version="1.1" xmlns="http://www.w3.org/2000/svg" xmlns:xlink="http://www.w3.org/1999/xlink">
    <!-- Generator: Sketch 55.2 (78181) - https://sketchapp.com -->
    <title>Slice</title>
    <desc>Created with Sketch.</desc>
    <g id="Annonse" stroke="none" stroke-width="1" fill="none" fill-rule="evenodd">
        <ellipse id="Oval" fill="#003058" cx="150.5" cy="151" rx="150.5" ry="151"></ellipse>
        <path d="M60,138.889344 L137.889344,138.889344 L137.889344,61 L60,61 L60,138.889344 Z M85.2213115,86.2213115 L111.184426,86.2213115 L111.184426,112.184426 L85.2213115,112.184426 L85.2213115,86.2213115 Z M163.110656,61 L163.110656,138.889344 L241,138.889344 L241,61 L163.110656,61 Z M215.778689,112.184426 L189.815574,112.184426 L189.815574,86.2213115 L215.778689,86.2213115 L215.778689,112.184426 Z M60,242 L137.889344,242 L137.889344,164.110656 L60,164.110656 L60,242 Z M85.2213115,190.815574 L111.184426,190.815574 L111.184426,216.778689 L85.2213115,216.778689 L85.2213115,190.815574 Z M228.018443,164.110656 L241,164.110656 L241,216.036885 L202.055328,216.036885 L202.055328,203.055328 L189.07377,203.055328 L189.07377,242 L163.110656,242 L163.110656,164.110656 L202.055328,164.110656 L202.055328,177.092213 L228.018443,177.092213 L228.018443,164.110656 Z M227.647541,228.647541 L241,228.647541 L241,242 L227.647541,242 L227.647541,228.647541 Z M201.684426,228.647541 L215.036885,228.647541 L215.036885,242 L201.684426,242 L201.684426,228.647541 Z" id="Shape" fill="#FFFFFF" fill-rule="nonzero"></path>
    </g>
</svg>