<?xml version="1.0" encoding="UTF-8"?>
<svg width="301px" height="302px" viewBox="0 0 301 302" version="1.1" xmlns="http://www.w3.org/2000/svg" xmlns:xlink="http://www.w3.org/1999/xlink">
    <!-- Generator: Sketch 55.2 (78181) - https://sketchapp.com -->
    <title>Slice</title>
    <desc>Created with Sketch.</desc>
    <g id="Annonse" stroke="none" stroke-width="1" fill="none" fill-rule="evenodd">
        <ellipse id="Oval" fill="#003058" cx="149.5" cy="151" rx="150.5" ry="151"></ellipse>
        <path d="M150.074157,75.7801234 C150.328411,77.258049 155.191011,105.495861 155.191011,116.281573 C155.191011,132.727425 146.355698,144.456494 133.293419,149.173278 L137.393258,224.044358 C137.61573,228.352354 134.151525,232 129.76565,232 L109.425361,232 C105.071268,232 101.575281,228.383799 101.797753,224.044358 L105.897592,149.173278 C92.8035313,144.456494 84,132.69598 84,116.281573 C84,105.464416 88.8626003,77.258049 89.1168539,75.7801234 C90.1338684,69.3967428 103.513965,69.3024071 104.340289,76.1260209 L104.340289,120.526678 C104.753451,121.595816 109.139326,121.532925 109.425361,120.526678 C109.870305,112.571036 111.936116,76.7549254 111.967897,75.9373496 C113.016693,69.3967428 126.174318,69.3967428 127.191332,75.9373496 C127.254896,76.7863706 129.288925,112.571036 129.733868,120.526678 C130.019904,121.532925 134.43756,121.595816 134.818941,120.526678 L134.818941,76.1260209 C135.645265,69.3338524 149.057143,69.3967428 150.074157,75.7801234 Z M187.564247,165.618945 L182.766314,223.824219 C182.382479,228.226563 185.93295,232 190.411021,232 L208.323306,232 C212.577474,232 216,228.635352 216,224.453125 L216,78.546875 C216,74.3960938 212.577474,71 208.323306,71 C181.934672,71 137.505807,127.129883 187.564247,165.618945 Z" id="Shape" fill="#FFFFFF" fill-rule="nonzero"></path>
    </g>
</svg>