<?xml version="1.0" encoding="UTF-8"?>
<svg width="301px" height="302px" viewBox="0 0 301 302" version="1.1" xmlns="http://www.w3.org/2000/svg" xmlns:xlink="http://www.w3.org/1999/xlink">
    <!-- Generator: Sketch 55.2 (78181) - https://sketchapp.com -->
    <title>Slice</title>
    <desc>Created with Sketch.</desc>
    <g id="Annonse" stroke="none" stroke-width="1" fill="none" fill-rule="evenodd">
        <ellipse id="Oval" fill="#003058" cx="149.5" cy="150" rx="150.5" ry="151"></ellipse>
        <path d="M217.388368,87 L81.6116319,87 C74.0842014,87 68,93.0948661 68,100.607143 L68,200.392857 C68,207.905134 74.0842014,214 81.6116319,214 L217.388368,214 C224.915799,214 231,207.905134 231,200.392857 L231,100.607143 C231,93.0948661 224.915799,87 217.388368,87 Z M83.7728087,101.111111 L215.9681,101.111111 C216.900645,101.111111 217.663636,101.863085 217.663636,102.782164 L217.663636,114.479532 L82.0772727,114.479532 L82.0772727,102.782164 C82.0772727,101.863085 82.8402639,101.111111 83.7728087,101.111111 Z M215.9681,200.631579 L83.7728087,200.631579 C82.8402639,200.631579 82.0772727,199.868212 82.0772727,198.935207 L82.0772727,150.871345 L217.663636,150.871345 L217.663636,198.935207 C217.663636,199.868212 216.900645,200.631579 215.9681,200.631579 Z M122.827273,172.038012 L122.827273,183.178363 C122.827273,185.01652 121.285256,186.520468 119.400568,186.520468 L98.8403409,186.520468 C96.9556534,186.520468 95.4136364,185.01652 95.4136364,183.178363 L95.4136364,172.038012 C95.4136364,170.199854 96.9556534,168.695906 98.8403409,168.695906 L119.400568,168.695906 C121.285256,168.695906 122.827273,170.199854 122.827273,172.038012 Z M176.172727,172.038012 L176.172727,183.178363 C176.172727,185.01652 174.647381,186.520468 172.783068,186.520468 L134.366932,186.520468 C132.502619,186.520468 130.977273,185.01652 130.977273,183.178363 L130.977273,172.038012 C130.977273,170.199854 132.502619,168.695906 134.366932,168.695906 L172.783068,168.695906 C174.647381,168.695906 176.172727,170.199854 176.172727,172.038012 Z" id="Shape" fill="#FFFFFF" fill-rule="nonzero"></path>
    </g>
</svg>