<?xml version="1.0" encoding="UTF-8"?>
<svg width="400px" height="161px" viewBox="0 0 400 161" version="1.1" xmlns="http://www.w3.org/2000/svg" xmlns:xlink="http://www.w3.org/1999/xlink">
    <title>Slice</title>
    <g id="Page-1" stroke="none" stroke-width="1" fill="none" fill-rule="evenodd">
        <rect id="Rectangle" fill="#FF5B24" x="0" y="0" width="400" height="161" rx="11"></rect>
        <g id="icon_vipps" transform="translate(55.000000, 53.000000)" fill="#FFFFFF" fill-rule="nonzero">
            <polygon id="Path" points="14.6044625 1 27.0912779 37.4618501 39.3955375 1 54 1 32.2758621 55 21.5415822 55 0 1"></polygon>
            <path d="M86.4536096,46.0678733 C95.4920198,46.0678733 100.630793,41.7239819 105.51445,35.4253394 C108.17495,32.0226244 111.600799,31.2986425 114.042628,33.2171946 C115.291488,34.3805226 116,36.0052966 116,37.7058824 C116,39.4064681 115.291488,41.0312421 114.042628,42.1945701 C107.844518,51.321933 97.536938,56.853415 86.4536096,57 C73.9893504,57 63.0193445,50.1945701 55.4387424,38.321267 C54.3963421,37.1467425 53.8842965,35.5991152 54.0220452,34.039384 C54.1597939,32.4796529 54.9352918,31.0442053 56.1676465,30.0678733 C57.5795532,29.2318528 59.2784368,29.0183057 60.8555134,29.4786153 C62.43259,29.938925 63.7450726,31.0314155 64.4771526,32.4932127 C69.8710426,40.4932127 77.1965282,46.0678733 86.4536096,46.0678733 Z M103.291293,16.239819 C103.291293,20.2382606 100.027879,23.479638 96.0022527,23.479638 C91.9766268,23.479638 88.7132122,20.2382606 88.7132122,16.239819 C88.7132122,12.2413774 91.9766268,9 96.0022527,9 C97.9354264,9 99.7894224,9.76276446 101.156383,11.1204939 C102.523343,12.4782233 103.291293,14.3196996 103.291293,16.239819 L103.291293,16.239819 Z" id="Shape"></path>
            <path d="M136.59134,1.46937693 L136.59134,8.74791412 C140.608862,3.04734489 147.25043,-0.239880767 154.23816,0.0136694941 C164.760487,0.0136694941 177,8.7843068 177,27.5629327 C177,47.3241612 165.235453,56.6770815 152.99594,56.6770815 C146.354612,56.825035 140.087587,53.6216641 136.335589,48.161193 L136.335589,74 L123,74 L123,1.46937693 L136.59134,1.46937693 Z M136.59134,28.2907865 C136.59134,39.2085922 142.948579,45.1406001 150.073072,45.1406001 C157.197564,45.1406001 163.774019,39.7544825 163.774019,28.2907865 C163.774019,16.8270904 156.905277,11.7321144 150.073072,11.7321144 C143.240866,11.7321144 136.59134,16.8270904 136.59134,28.2907865 Z" id="Shape"></path>
            <path d="M200.454299,1.47345226 L200.454299,8.75158048 C204.49595,3.0179729 211.192002,-0.273347822 218.222749,0.017826613 C228.7522,0.017826613 241,8.78797112 241,27.5655419 C241,47.3256601 229.227488,56.6780548 216.979689,56.6780548 C210.34361,56.8270105 204.082865,53.6221665 200.344617,48.1626448 L200.344617,74 L187,74 L187,1.47345226 L200.454299,1.47345226 Z M200.454299,28.2933548 C200.454299,39.2105471 206.815843,45.1422216 213.945159,45.1422216 C221.074475,45.1422216 227.655383,39.7564067 227.655383,28.2933548 C227.655383,16.8303028 220.781991,11.7356131 213.945159,11.7356131 C207.108328,11.7356131 200.454299,16.8303028 200.454299,28.2933548 Z" id="Shape"></path>
            <path d="M268.555192,0 C279.593622,0 287.541292,5.05829596 291,17.5426009 L278.931316,19.4798206 C278.673753,13.2376682 274.736713,11.0493274 268.92314,11.0493274 C264.470973,11.0493274 261.04906,12.9865471 261.04906,16.1076233 C261.04906,18.5112108 262.741619,20.9147982 267.929681,21.8834081 L277.054783,23.5695067 C284.982517,24.3680141 290.97128,30.9388002 290.852821,38.7085202 C290.852821,50.2242152 280.255928,56 270.137367,56 C260.018806,56 247.729354,50.7264574 246,37.7399103 L257.88471,35.8744395 C258.620605,42.6188341 262.815209,45.0224215 269.732625,45.0224215 C274.883892,45.0224215 278.3426,43.0852018 278.3426,39.9641256 C278.3426,36.8430493 276.613246,34.941704 270.983647,33.9730942 L262.59444,32.5381166 C254.53601,31.6521269 248.415454,25.0540778 248.31807,17.1479821 C248.612428,5.05829596 259.687653,0 268.555192,0 Z" id="Path"></path>
        </g>
    </g>
</svg>