<?xml version="1.0" encoding="UTF-8"?>
<svg width="301px" height="302px" viewBox="0 0 301 302" version="1.1" xmlns="http://www.w3.org/2000/svg" xmlns:xlink="http://www.w3.org/1999/xlink">
    <!-- Generator: Sketch 55.2 (78181) - https://sketchapp.com -->
    <title>Slice</title>
    <desc>Created with Sketch.</desc>
    <g id="Annonse" stroke="none" stroke-width="1" fill="none" fill-rule="evenodd">
        <circle id="Oval" fill="#003058" cx="150.5" cy="150.5" r="150.5"></circle>
        <path d="M102.664286,80.6375657 L102.664286,115.478726 C99.6834228,114.891418 96.6523759,114.59677 93.6142857,114.598974 C74.2561741,114.598974 60,128.778502 60,151.794359 C60,170.114703 79.6098147,174.840134 91.8301429,182.402522 C96.8452165,185.529765 101.250627,189.273157 105.264949,192.854021 L105.323935,192.906984 L105.38373,192.959139 C112.444346,199.152575 114.946429,202.345717 114.946429,205.161246 L114.946429,206.24436 C112.945732,208.567859 111.714286,211.716933 111.714286,215.187424 L111.714286,241.062475 C111.714286,248.207627 116.923692,254 123.35,254 L216.435714,254 C222.862022,254 228.071429,248.207627 228.071429,241.062475 L228.071429,215.187424 C228.071429,211.716933 226.839982,208.567859 224.839286,206.24436 L224.839286,205.161246 C224.839286,193.562755 241,178.017914 241,153.734583 L241,145.123448 C241,119.837863 225.381478,105.178838 204.175792,104.717939 C196.979022,99.6714955 187.697924,97.2420708 178.807107,98.2552407 C175.982472,96.81524 172.987336,95.7381515 169.892857,95.0495645 L169.892857,80.6375657 C169.892857,62.2683013 154.70825,47 136.278571,47 C118.05777,47 102.664286,62.4041453 102.664286,80.6375657 Z M151.612705,79.7723502 L151.612705,116.555034 C157.517162,111.367732 168.850306,110.730079 176.186098,118.555279 C184.09386,114.018562 194.550331,117.873579 197.770834,123.77814 C213.520346,121.141858 222.454918,127.84975 222.454918,144.225087 L222.454918,152.831797 C222.454918,171.214249 207.999484,184.031575 206.484829,201.322581 L135.339524,201.322581 C134.146477,191.123757 126.797402,183.960456 119.401636,177.450972 C114.309852,172.894859 109.218068,168.67212 103.351447,165.005408 C93.9374831,159.153783 80.7704918,154.445732 80.7704918,150.892166 C80.7704918,141.446565 84.3126025,133.112212 94.9389344,133.112212 C109.107377,133.112212 116.302289,143.780184 123.27582,143.780184 L123.27582,79.7723502 C123.27582,72.3269945 129.917277,65.5483871 137.444262,65.5483871 C145.081938,65.5483871 151.612705,72.1047451 151.612705,79.7723502 Z M202.055328,219.129032 C207.176475,219.129032 211.327869,223.281166 211.327869,228.403226 C211.327869,233.525286 207.176475,237.677419 202.055328,237.677419 C196.934181,237.677419 192.782787,233.525286 192.782787,228.403226 C192.782787,223.281166 196.934181,219.129032 202.055328,219.129032 Z" id="Shape" fill="#FFFFFF" fill-rule="nonzero"></path>
    </g>
</svg>