<?xml version="1.0" encoding="UTF-8"?>
<svg width="301px" height="302px" viewBox="0 0 301 302" version="1.1" xmlns="http://www.w3.org/2000/svg" xmlns:xlink="http://www.w3.org/1999/xlink">
    <!-- Generator: Sketch 55.2 (78181) - https://sketchapp.com -->
    <title>Slice</title>
    <desc>Created with Sketch.</desc>
    <g id="Annonse" stroke="none" stroke-width="1" fill="none" fill-rule="evenodd">
        <ellipse id="Oval" fill="#1BB776" cx="150.5" cy="151" rx="150.5" ry="151"></ellipse>
        <path d="M248.166663,119.5 L224.07831,119.5 L217.383301,102.6 C210.503213,85.2246875 194.083542,74 175.54754,74 L124.449814,74 C105.917836,74 89.4941416,85.2246875 82.6100307,102.6 L75.9150215,119.5 L51.8306918,119.5 C48.6883828,119.5 46.38295,122.481875 47.1474041,125.557187 L49.5614699,135.307187 C50.0965879,137.476562 52.0278405,139 54.2447576,139 L62.3198077,139 C56.9163237,143.765312 53.4360455,150.691875 53.4360455,158.5 L53.4360455,178 C53.4360455,184.54875 55.9144864,190.459687 59.8735543,195.034062 L59.8735543,217 C59.8735543,224.178437 65.6391481,230 72.7485719,230 L85.6235895,230 C92.7330132,230 98.498607,224.178437 98.498607,217 L98.498607,204 L201.498748,204 L201.498748,217 C201.498748,224.178437 207.264341,230 214.373765,230 L227.248783,230 C234.358207,230 240.1238,224.178437 240.1238,217 L240.1238,195.034062 C244.082868,190.46375 246.561309,184.552812 246.561309,178 L246.561309,158.5 C246.561309,150.691875 243.081031,143.765312 237.68157,139 L245.756621,139 C247.973538,139 249.90479,137.476562 250.439908,135.307187 L252.853974,125.557187 C253.614405,122.481875 251.308972,119.5 248.166663,119.5 Z M105.255337,111.866135 C108.198936,104.625628 115.325756,99.8767773 123.252072,99.8767773 L174.532874,99.8767773 C182.45919,99.8767773 189.58601,104.625628 192.529609,111.866135 L200.577061,131.668246 L97.2078853,131.668246 L105.255337,111.866135 Z M85.5419355,177.426496 C77.9221505,177.426496 72.8422939,172.267263 72.8422939,164.528414 C72.8422939,156.789565 77.9221505,151.630332 85.5419355,151.630332 C93.1617204,151.630332 104.591398,163.238606 104.591398,170.977455 C104.591398,178.716304 93.1617204,177.426496 85.5419355,177.426496 Z M214.458065,177.426496 C206.83828,177.426496 195.408602,178.716304 195.408602,170.977455 C195.408602,163.238606 206.83828,151.630332 214.458065,151.630332 C222.077849,151.630332 227.157706,156.789565 227.157706,164.528414 C227.157706,172.267263 222.077849,177.426496 214.458065,177.426496 L214.458065,177.426496 Z" id="Shape" fill="#FFFFFF" fill-rule="nonzero"></path>
    </g>
</svg>