<svg xmlns="http://www.w3.org/2000/svg" xmlns:xlink="http://www.w3.org/1999/xlink" width="466.465" height="531.263" viewBox="0 0 466.465 531.263"><defs><clipPath id="a"><path d="M176.484-966.63c97.469,0,176.484-79.1,176.484-176.685S273.953-1320,176.484-1320,0-1240.9,0-1143.315,79.015-966.63,176.484-966.63Z" transform="translate(0 1320)" fill="none" clip-rule="evenodd"/></clipPath><clipPath id="b"><path d="M327.487-619.637c115.7,0,209.487-93.43,209.487-208.682S443.183-1037,327.487-1037,118-943.57,118-828.318,211.79-619.637,327.487-619.637Z" transform="translate(-118 1037)" fill="none" clip-rule="evenodd"/></clipPath><clipPath id="c"><path d="M383.9-730c-9.335,9.716-15.015,23.232-11.249,41.457a566.571,566.571,0,0,1-3.461,125.236c-2.461,10.441-10.338,23.585,0,27.638,18.172,15.547,72.048,34.3,89.993,31.093,16.122-.321,17.523-9.516,15.576-20.729-1.219-29.8,2.964-54.775,10.384-76.869L406.4-688.543Z" transform="translate(-364 730)" fill="none" clip-rule="evenodd"/></clipPath><clipPath id="d"><path d="M469-635.484c3.59,31.226,27.131,63.539,15.58,82.185,8.606,30.952,49.213,26.952,59.722,14.707l5.193-14.707L475.059-645Z" transform="translate(-469 645)" fill="none" clip-rule="evenodd"/></clipPath><clipPath id="e"><path d="M291.456-1089.14c-7.22-13.22-9.153-25.8,6.052-36.292l95.962-49.254c13.319-9.834,26.6-12.226,39.768,8.641L542.168-957.8c7.5,13.626,6.183,25.036-6.052,33.7l-92.5,49.254c-14.316,3.67-27.728,20.845-44.091-6.049Z" transform="translate(-286 1182)" fill="none" clip-rule="evenodd"/></clipPath><clipPath id="f"><path d="M322.612-1056.587c-15.134-20.9-5.932-32.119,12.115-39.812l82.211-43.275c16.3-9.011,27.115-3.316,34.615,11.251l96.923,186.945c8.74,13.9,5.144,23.349-7.789,29.427q-60.564,31.521-84.807,47.6t-38.942-9.52Z" transform="translate(-315 1144)" fill="none" clip-rule="evenodd"/></clipPath><clipPath id="g"><path d="M435.709-1107.255c-1.713.865,0,3.46,1.713,2.595l28.261-15.57c1.713-.865,0-3.46-1.713-2.595Z" transform="translate(-435 1123)" fill="none" clip-rule="evenodd"/></clipPath><clipPath id="h"><path d="M415.207-1071.585a1.207,1.207,0,0,0,1.207-1.207,1.207,1.207,0,0,0-1.207-1.207,1.207,1.207,0,0,0-1.207,1.207A1.207,1.207,0,0,0,415.207-1071.585Z" transform="translate(-414 1074)" fill="none" clip-rule="evenodd"/></clipPath><clipPath id="i"><path d="M401.207-1062.585a1.207,1.207,0,0,0,1.207-1.207,1.207,1.207,0,0,0-1.207-1.207,1.207,1.207,0,0,0-1.207,1.207A1.207,1.207,0,0,0,401.207-1062.585Z" transform="translate(-400 1065)" fill="none" clip-rule="evenodd"/></clipPath><clipPath id="j"><path d="M409-755.063c9.386-12.032,23.286-21.451,28.46-19.735,13.044,4.507,10.349,19.735,10.349,25.741-.94,12.612-9.95,24.081-15.524,36.037Z" transform="translate(-409 775)" fill="none" clip-rule="evenodd"/></clipPath></defs><g transform="translate(0 1320)"><g transform="translate(0 -1320)" clip-path="url(#a)"><path d="M-5-1325H351.993v357.4H-5Z" transform="translate(2.988 1322.988)" fill="rgba(190,248,218,0.33)"/></g><g transform="translate(47.492 -1206.1)" clip-path="url(#b)"><path d="M113-1042H536v421.388H113Z" transform="translate(-115.012 1039.988)" fill="rgba(190,248,218,0.33)"/></g><g transform="translate(146.5 -1082.542)" clip-path="url(#c)"><path d="M359-735H484.169v229.811H359Z" transform="translate(-361.012 732.988)" fill="#fdb7b4"/></g><g transform="translate(188.759 -1048.331)" clip-path="url(#d)"><path d="M464-650h84.519v119.534H464Z" transform="translate(-466.012 647.988)" fill="#ffa6a4"/></g><g transform="translate(115.107 -1264.459)" clip-path="url(#e)"><path d="M281-1187H545.827v319.965H281Z" transform="translate(-283.012 1184.988)" fill="#4a3a5a"/></g><g transform="translate(126.779 -1249.165)" clip-path="url(#f)"><path d="M310-1149H552.288v289.78H310Z" transform="translate(-312.012 1146.988)" fill="snow"/></g><g transform="translate(175.075 -1240.713)" clip-path="url(#g)"><path d="M430-1128h35.418v22.538H430Z" transform="translate(-432.012 1125.988)" fill="#f4f4f4"/></g><g transform="translate(166.623 -1220.992)" clip-path="url(#h)"><path d="M409-1079h6.44v6.44H409Z" transform="translate(-411.012 1076.988)" fill="#f4f4f4"/></g><g transform="translate(160.989 -1217.37)" clip-path="url(#i)"><path d="M395-1070h6.44v6.44H395Z" transform="translate(-397.012 1067.988)" fill="#f4f4f4"/></g><g transform="translate(164.611 -1100.653)" clip-path="url(#j)"><path d="M404-780h43.065v66.005H404Z" transform="translate(-406.012 777.988)" fill="#fdb7b4"/></g></g></svg>