<svg xmlns="http://www.w3.org/2000/svg" xmlns:xlink="http://www.w3.org/1999/xlink" width="309.385" height="352.363" viewBox="0 0 309.385 352.363"><defs><clipPath id="a"><path d="M117.054-1085.625a117.121,117.121,0,0,0,117.054-117.187A117.121,117.121,0,0,0,117.054-1320,117.121,117.121,0,0,0,0-1202.812,117.121,117.121,0,0,0,117.054-1085.625Z" transform="translate(0 1320)" fill="none" clip-rule="evenodd"/></clipPath><clipPath id="b"><path d="M256.943-760.181c76.736,0,138.943-61.968,138.943-138.409S333.679-1037,256.943-1037,118-975.032,118-898.591,180.207-760.181,256.943-760.181Z" transform="translate(-118 1037)" fill="none" clip-rule="evenodd"/></clipPath><clipPath id="c"><path d="M377.2-730c-6.191,6.444-9.959,15.409-7.461,27.5a375.782,375.782,0,0,1-2.3,83.064c-1.633,6.925-6.856,15.643,0,18.331,12.052,10.311,47.786,22.75,59.688,20.623,10.693-.213,11.622-6.312,10.331-13.748-.809-19.763,1.966-36.33,6.887-50.984L392.122-702.5Z" transform="translate(-364 730)" fill="none" clip-rule="evenodd"/></clipPath><clipPath id="d"><path d="M469-638.688c2.381,20.711,17.995,42.143,10.333,54.51,5.708,20.529,32.641,17.876,39.611,9.754l3.444-9.754L473.018-645Z" transform="translate(-469 645)" fill="none" clip-rule="evenodd"/></clipPath><clipPath id="e"><path d="M289.618-1120.41c-4.789-8.768-6.071-17.11,4.014-24.071l63.648-32.668c8.834-6.522,17.644-8.109,26.376,5.731L455.9-1033.3c4.973,9.037,4.1,16.6-4.014,22.352l-61.354,32.668c-9.5,2.434-18.391,13.826-29.243-4.012Z" transform="translate(-286 1182)" fill="none" clip-rule="evenodd"/></clipPath><clipPath id="f"><path d="M320.048-1086.023c-10.038-13.865-3.935-21.3,8.036-26.406l54.527-28.7c10.813-5.977,17.984-2.2,22.959,7.463l64.285,123.992c5.8,9.22,3.412,15.486-5.166,19.517q-40.169,20.906-56.249,31.572T382.611-964.9Z" transform="translate(-315 1144)" fill="none" clip-rule="evenodd"/></clipPath><clipPath id="g"><path d="M435.471-1112.557c-1.136.574,0,2.295,1.136,1.721l18.744-10.327c1.136-.574,0-2.295-1.136-1.721Z" transform="translate(-435 1123)" fill="none" clip-rule="evenodd"/></clipPath><clipPath id="h"><path d="M414.8-1072.4a.8.8,0,0,0,.8-.8.8.8,0,0,0-.8-.8.8.8,0,0,0-.8.8A.8.8,0,0,0,414.8-1072.4Z" transform="translate(-414 1074)" fill="none" clip-rule="evenodd"/></clipPath><clipPath id="i"><path d="M400.8-1063.4a.8.8,0,0,0,.8-.8.8.8,0,0,0-.8-.8.8.8,0,0,0-.8.8A.8.8,0,0,0,400.8-1063.4Z" transform="translate(-400 1065)" fill="none" clip-rule="evenodd"/></clipPath><clipPath id="j"><path d="M371.145-1031.638c-8.241-11.326-3.23-17.4,6.6-21.571l44.764-23.447c8.877-4.882,14.764-1.8,18.848,6.1L494.127-969.27c4.759,7.532,2.8,12.651-4.241,15.944q-32.977,17.078-46.177,25.791t-21.2-5.158Z" transform="translate(-367 1079)" fill="none" clip-rule="evenodd"/></clipPath><clipPath id="k"><path d="M835.652-885.8l7.991-9.223a6.554,6.554,0,0,1,4.567-2.306l27.4-.576c4.223-.6,4.289,1.793,4.567,4.035l.571,10.952c0,2.882.512,5.519-2.854,6.341l-28.541,1.153c-2.283,0-3.316-.409-4.567-1.729Z" transform="translate(-835.652 898)" fill="none" clip-rule="evenodd"/></clipPath><clipPath id="l"><path d="M731.323-844.513c-1.713,1.153-2.854-.576-1.713-1.729,9.687-7.582,21.8-9.944,34.82-10.376,1.142,0,1.142,2.306,0,2.306A57.621,57.621,0,0,0,731.323-844.513Z" transform="translate(-729.151 856.619)" fill="none" clip-rule="evenodd"/></clipPath><clipPath id="m"><path d="M900.535-865.5l16.091-.284a.8.8,0,0,1,.815.786h0l.032,1.857a.8.8,0,0,1-.787.815l-16.091.284a.8.8,0,0,1-.815-.786h0l-.032-1.857A.8.8,0,0,1,900.535-865.5Z" transform="translate(-899.748 865.787)" fill="none" clip-rule="evenodd"/></clipPath><clipPath id="n"><path d="M673.562-796.489a8.6,8.6,0,0,0,8.562-8.647,8.6,8.6,0,0,0-8.562-8.647A8.6,8.6,0,0,0,665-805.136,8.6,8.6,0,0,0,673.562-796.489Z" transform="translate(-665 813.783)" fill="none" clip-rule="evenodd"/></clipPath><clipPath id="o"><path d="M681.582-795.142l2.915.776,2.373-7.044,1.966.844-3.187,9.066-4.88-1.62Z" transform="translate(-680.769 801.409)" fill="none" clip-rule="evenodd"/></clipPath><clipPath id="p"><path d="M155.419-869.8c.215-4.9,2.553-6,6.3-4.587l25.206,4.014a8.782,8.782,0,0,1,5.729,4.014q1.146,1.72,6.874,9.175-8.02,5.161-10.312,6.881c-2.292,1.72-3.873,2.281-6.3,1.72l-25.779-4.014c-3.433-.006-4.545-1.7-4.01-4.588Z" transform="translate(-153 874.953)" fill="none" clip-rule="evenodd"/></clipPath><clipPath id="q"><path d="M197.432-835.464l15.2,1.869a.935.935,0,0,1,.814,1.041l-.261,2.129a.934.934,0,0,1-1.041.814h0l-15.2-1.869a.935.935,0,0,1-.814-1.041l.261-2.129a.934.934,0,0,1,1.041-.814Z" transform="translate(-196.123 835.471)" fill="none" clip-rule="evenodd"/></clipPath><clipPath id="r"><path d="M343.822-826.11c3.437-2.294.573-3.441-1.719-1.72a44.729,44.729,0,0,1-19.262,5.724,42,42,0,0,1-19.693-4c-2.292-1.147-3.437,1.147-1.719,2.294C314.5-819.083,328.073-816.92,343.822-826.11Z" transform="translate(-300.602 828.658)" fill="none" clip-rule="evenodd"/></clipPath><clipPath id="s"><path d="M477.542-872.8a8.6,8.6,0,0,0,8.593-8.6,8.6,8.6,0,0,0-8.593-8.6,8.6,8.6,0,0,0-8.593,8.6A8.6,8.6,0,0,0,477.542-872.8Z" transform="translate(-468.949 890)" fill="none" clip-rule="evenodd"/></clipPath><clipPath id="t"><path d="M485.591-871.456l2.925.772,2.382-7.007,1.973.839-3.2,9.019-4.9-1.612Z" transform="translate(-484.774 877.691)" fill="none" clip-rule="evenodd"/></clipPath><clipPath id="u"><path d="M409-761.777c6.225-7.981,15.444-14.227,18.876-13.089,8.652,2.989,6.864,13.089,6.864,17.073-.623,8.365-6.6,15.972-10.3,23.9Z" transform="translate(-409 775)" fill="none" clip-rule="evenodd"/></clipPath></defs><g transform="translate(0 1320)"><g transform="translate(0 -1320)" clip-path="url(#a)"><path d="M-5-1325H231.777v237.044H-5Z" transform="translate(3.665 1323.665)" fill="rgba(255,255,255,0.38)"/></g><g transform="translate(31.499 -1244.456)" clip-path="url(#b)"><path d="M113-1042H393.556v279.488H113Z" transform="translate(-114.335 1040.665)" fill="rgba(255,255,255,0.38)"/></g><g transform="translate(97.167 -1162.504)" clip-path="url(#c)"><path d="M359-735h83.019v152.424H359Z" transform="translate(-360.335 733.665)" fill="#fdb7b4"/></g><g transform="translate(125.196 -1139.814)" clip-path="url(#d)"><path d="M464-650h56.058v79.282H464Z" transform="translate(-465.335 648.665)" fill="#ffa6a4"/></g><g transform="translate(76.345 -1283.162)" clip-path="url(#e)"><path d="M281-1187H456.648v212.219H281Z" transform="translate(-282.335 1185.665)" fill="#4a3a5a"/></g><g transform="translate(84.087 -1273.018)" clip-path="url(#f)"><path d="M310-1149H470.7v192.2H310Z" transform="translate(-311.335 1147.665)" fill="snow"/></g><g transform="translate(116.12 -1267.412)" clip-path="url(#g)"><path d="M430-1128h23.491v14.949H430Z" transform="translate(-431.335 1126.665)" fill="#f4f4f4"/></g><g transform="translate(110.514 -1254.332)" clip-path="url(#h)"><path d="M409-1079h4.271v4.271H409Z" transform="translate(-410.335 1077.665)" fill="#f4f4f4"/></g><g transform="translate(106.777 -1251.93)" clip-path="url(#i)"><path d="M395-1070h4.271v4.271H395Z" transform="translate(-396.335 1068.665)" fill="#f4f4f4"/></g><g transform="translate(97.968 -1255.667)" clip-path="url(#j)"><path d="M362-1084H494.4v157.5H362Z" transform="translate(-363.335 1082.665)" fill="#f6e9fa"/></g><g transform="translate(223.07 -1207.351)" clip-path="url(#k)"><path d="M830.652-903h47.792v25.245H830.652Z" transform="translate(-831.987 901.665)" fill="#fa81a6"/></g><g transform="translate(194.641 -1196.304)" clip-path="url(#l)"><path d="M724.151-861.619h38.805v15.155H724.151Z" transform="translate(-725.486 860.284)" fill="#6a507d"/></g><g transform="translate(240.18 -1198.752)" clip-path="url(#m)"><path d="M894.607-870.57l20.363-.355.107,6.13-20.363.355Z" transform="translate(-895.979 869.554)" fill="#6a507d"/></g><g transform="translate(177.516 -1184.869)" clip-path="url(#n)"><path d="M660-818.783h19.794v19.963H660Z" transform="translate(-661.335 817.448)" fill="#66bec0"/></g><g transform="translate(181.726 -1181.566)" clip-path="url(#o)"><path d="M673.382-806.459l11.209-.784.87,12.439-11.209.784Z" transform="translate(-675.354 805.685)" fill="#fff"/></g><g transform="translate(40.842 -1201.198)" clip-path="url(#p)"><path d="M148-879.953h49.2V-850.7H148Z" transform="translate(-149.335 878.619)" fill="#fa81a6"/></g><g transform="translate(52.353 -1190.659)" clip-path="url(#q)"><path d="M190.963-841.443l19.708,2.42-.815,6.636-19.708-2.42Z" transform="translate(-191.743 839.849)" fill="#6a507d"/></g><g transform="translate(80.243 -1188.84)" clip-path="url(#r)"><path d="M295.6-833.658h47.481v11.586H295.6Z" transform="translate(-296.937 832.324)" fill="#6a507d"/></g><g transform="translate(125.182 -1205.215)" clip-path="url(#s)"><path d="M463.949-895H483.8v19.872H463.949Z" transform="translate(-465.284 893.665)" fill="#66bec0"/></g><g transform="translate(129.406 -1201.929)" clip-path="url(#t)"><path d="M477.4-882.741l11.236-.786.866,12.388-11.236.786Z" transform="translate(-479.368 881.969)" fill="#fff"/></g><g transform="translate(109.179 -1174.517)" clip-path="url(#u)"><path d="M404-780h28.563v43.779H404Z" transform="translate(-405.335 778.665)" fill="#fdb7b4"/></g></g></svg>