<svg xmlns="http://www.w3.org/2000/svg" xmlns:xlink="http://www.w3.org/1999/xlink" width="337.089" height="318.257" viewBox="0 0 337.089 318.257"><defs><clipPath id="a"><path d="M494.833-947.334a117.833,117.833,0,0,0,117.833-117.833A117.833,117.833,0,0,0,494.833-1183,117.833,117.833,0,0,0,377-1065.167,117.833,117.833,0,0,0,494.833-947.334Z" transform="translate(-377 1183)" fill="none" clip-rule="evenodd"/></clipPath><clipPath id="b"><path d="M146.215-794.57A146.215,146.215,0,0,0,292.43-940.785,146.215,146.215,0,0,0,146.215-1087,146.215,146.215,0,0,0,0-940.785,146.215,146.215,0,0,0,146.215-794.57Z" transform="translate(0 1087)" fill="none" clip-rule="evenodd"/></clipPath><clipPath id="c"><path d="M563.405-905.606l-2.118,4.587-.786,14.992-6.783,93.6c2.614,1.367,3.011,3.453,10.149,3.351l16.849.883,69.417.819c8.145,1.328,9.864-.659,10.493-3.208l-6.368-75.5L651.3-899.121Z" transform="translate(-553.719 905.606)" fill="none" clip-rule="evenodd"/></clipPath><clipPath id="d"><path d="M618.659-982.416q.343,11.4-2.47,11.253-2.158-.647-1.28-11.449l-16.925.062c-1.938-1.8-8.387-4.777-7.2-6.069l14.063.737a40.009,40.009,0,0,1,2.767-16.928c4.408-10.313,10.75-13.364,17.669-14.25,4.829-.486,9.366-.01,12.977,3.526q16.037-1.057,21.261,24.827c3.663,1.864,7.459,1.171,11.25.59l-.2,3.784,8.24,4.226-16.876-.885q-.595,11.351-2.42,10.307-1.875-.1-1.33-10.5Z" transform="translate(-590.637 1019.221)" fill="none" clip-rule="evenodd"/></clipPath><clipPath id="e"><path d="M652.3-977.762l7.547-.529c-.48-20.184,13.538-25.166,16.4-25.94C673.48-1005.3,655.3-1010.581,652.3-977.762Z" transform="translate(-652.299 1005.192)" fill="none" clip-rule="evenodd"/></clipPath><clipPath id="f"><path d="M715.921-992.815c4.206,4.809,7.843,10.612,8.172,22.194l-27.1.473C696.61-980.578,702.086-995.152,715.921-992.815Z" transform="translate(-696.977 993.065)" fill="none" clip-rule="evenodd"/></clipPath><clipPath id="g"><path d="M783.111-991.392c5.523,2.559,11.02,5.251,13.9,21.81l-6.611.612C791.05-977.786,787.333-984.7,783.111-991.392Z" transform="translate(-783.111 991.392)" fill="none" clip-rule="evenodd"/></clipPath><clipPath id="h"><path d="M407.069-807.987c-1.622,1.176-1.816,3.487-1.492,6.211l9.669,79.9c1.416,8.926,4.663,8.934,7.913,8.929L490.892-723.7l16.871-15.628L485.2-820.159c-1.465-3.9-2.869-4.76-4.278-5.857Z" transform="translate(-405.445 826.016)" fill="none" clip-rule="evenodd"/></clipPath><clipPath id="i"><path d="M411.856-871.4l1.07,4.634-5.136,3.138,13.91-3.212,1.426,10.409,2.782-.642-1.426-10.409,33.813-5.854,1.426,10.409,3.709-.856-1.212-9.483,13.411-1.144,16.917,94.43,16.907-15.618L495.03-798.83l-18.188-78.783,4.922-4.065q-12.056,2.783-12.27,1.856c-.243-1.052-.856-3.707-1.447-5.851s-4.054-14.293-14.531-16.819q-10.343-2.493-18.333,5.209c-9.943,1.695-13.355,11.253-13.626,24.593Z" transform="translate(-407.789 903.101)" fill="none" clip-rule="evenodd"/></clipPath><clipPath id="j"><path d="M468.9-844.922l5.548-1.281c-.5-12.2,1.543-15.405,3.1-20.331C475.7-866.107,468.438-863,468.9-844.922Z" transform="translate(-468.882 866.534)" fill="none" clip-rule="evenodd"/></clipPath><clipPath id="k"><path d="M500.346-850.85c12.759-2.05,18.438-2.844,24.06-3.628-2.921-9.92-7.86-17.454-17.374-17.185,0,0-2.231.056-2.727.63C501.942-868.3,500.559-861.791,500.346-850.85Z" transform="translate(-500.346 871.669)" fill="none" clip-rule="evenodd"/></clipPath><clipPath id="l"><path d="M552.15-866.82c-2.538-19.544-19.276-20.435-18.58-20.634,17.591-5.02,21.859,9.333,25.138,19.12Z" transform="translate(-533.549 888.489)" fill="none" clip-rule="evenodd"/></clipPath><clipPath id="m"><path d="M441.928-179.957a11.572,11.572,0,0,0,11.558-11.585,11.572,11.572,0,0,0-11.558-11.585,11.572,11.572,0,0,0-11.558,11.585A11.572,11.572,0,0,0,441.928-179.957Z" transform="translate(-430.37 203.127)" fill="none" clip-rule="evenodd"/></clipPath><clipPath id="n"><path d="M789.929-179.957a11.572,11.572,0,0,0,11.558-11.585,11.572,11.572,0,0,0-11.558-11.585,11.572,11.572,0,0,0-11.558,11.585A11.572,11.572,0,0,0,789.929-179.957Z" transform="translate(-778.37 203.127)" fill="none" clip-rule="evenodd"/></clipPath><clipPath id="o"><path d="M140.1-850.941c3.751.57,5.588,3.976,6.935,8.11L192.108-742.04c1.992,6.112,5.722,9.992,12.136,10.427l-3.467,4.055L184.6-707.864c-5.863,8.541-2.89,15.64,7.513,17.378h5.779c3.519-.593,4.155,2.494,3.467,6.372-2.312,10.427-.034,13.737,2.89,13.9,3.542.318,6.711-2.436,9.246-10.427l4.045-9.847h72.816c3.467,0,5.779,0,4.623,6.372-4.623,20.274,8.669,13.9,10.4,7.53l5.779-13.9h15.026c4.3-.729,4.431-2.156,5.2-3.476-.3-1.877-.73-3.689-4.045-4.055H193.264c-6.357,0-4.045-5.793-1.156-8.11l16.181-19.695,37.564-5.793c2.179-.584,4.6-2.067,3.467-5.793l73.394-11.585c5.691-1.451,9.866-4.89,11.558-11.585l5.779-49.816q0-14.482-12.714-14.482l-73.394-4.055-94.777-4.688,2.89,6.372,165.281,8.689c6.357,1.738,6.562,4.057,5.2,15.64-1.38,11.741-4.045,39.969-4.045,39.969-.708,4.127-5.779,8.689-14.448,9.847l-90.731,13.323c-13.11,3.423-23.354,1.157-28.317-11.585l-35.83-82.255c-5.491-14.989-11.445-23.1-17.915-23.7,0-4.634-4.045-4.634-4.045-4.634H110.623c-3.042-.394-3.913,1.457-4.623,3.476v5.213q0,4.634,4.623,4.634h25.428C139.844-848.624,136.346-851.511,140.1-850.941Z" transform="translate(-106 862)" fill="none" clip-rule="evenodd"/></clipPath><clipPath id="p"><path d="M355.185-622.8H515.843v4.634l-158.924.579Z" transform="translate(-355.185 622.799)" fill="none" clip-rule="evenodd"/></clipPath><clipPath id="q"><path d="M411.778-514.987l141.587-12.744v-4.634L408.889-520.78Z" transform="translate(-408.889 532.365)" fill="none" clip-rule="evenodd"/></clipPath><clipPath id="r"><path d="M355.185-739.07l38.72,95,5.2-1.738L362.7-739.07Z" transform="translate(-355.185 739.07)" fill="none" clip-rule="evenodd"/></clipPath><clipPath id="s"><path d="M456.148-739.07l28.9,91.523h5.779L461.349-739.07Z" transform="translate(-456.148 739.07)" fill="none" clip-rule="evenodd"/></clipPath><clipPath id="t"><path d="M533.482-732.611l24.272,86.31h5.779l-24.85-86.31Z" transform="translate(-533.482 732.611)" fill="none" clip-rule="evenodd"/></clipPath><clipPath id="u"><path d="M617.259-732.611l20.227,83.993,5.779-2.317-18.493-81.676Z" transform="translate(-617.259 732.611)" fill="none" clip-rule="evenodd"/></clipPath><clipPath id="v"><path d="M713.926-721.845l12.136,78.779h5.2L719.7-721.845Z" transform="translate(-713.926 721.845)" fill="none" clip-rule="evenodd"/></clipPath><clipPath id="w"><path d="M795.556-721.845l6.357,74.724h5.779l-5.779-74.724Z" transform="translate(-795.556 721.845)" fill="none" clip-rule="evenodd"/></clipPath><clipPath id="x"><path d="M879.333-642.562h5.779v-70.67h-5.779Z" transform="translate(-879.333 713.232)" fill="none"/></clipPath></defs><g transform="translate(0 1183)"><g transform="translate(101.422 -1183)" clip-path="url(#a)"><path d="M372-1188H610.356v238.356H372Z" transform="translate(-373.345 1186.655)" fill="rgba(255,255,255,0.4)"/></g><g transform="translate(0 -1157.173)" clip-path="url(#b)"><path d="M-5-1092H290.121v295.121H-5Z" transform="translate(3.655 1090.655)" fill="rgba(255,255,255,0.4)"/></g><g transform="translate(148.964 -1108.374)" clip-path="url(#c)"><path d="M554.137-911.591l109.4,5.733L657.3-786.912l-109.4-5.733Z" transform="translate(-549.468 909.981)" fill="#ffce4e"/></g><g transform="translate(158.896 -1138.939)" clip-path="url(#d)"><path d="M585-1031.576l90.94,4.766-2.687,51.272-90.94-4.766Z" transform="translate(-584.556 1028.252)" fill="#f9c33d"/></g><g transform="translate(175.485 -1135.165)" clip-path="url(#e)"><path d="M648.67-1013.837l25.183,1.32-1.626,31.028-25.183-1.32Z" transform="translate(-648.458 1011.511)" fill="#fff"/></g><g transform="translate(187.504 -1131.903)" clip-path="url(#f)"><path d="M692.755-1001.307l29.8,1.562-1.384,26.4-29.8-1.562Z" transform="translate(-692.88 999.09)" fill="#fff"/></g><g transform="translate(210.676 -1131.453)" clip-path="url(#g)"><path d="M774.867-996.647l17.684.927-1.293,24.666-17.684-.927Z" transform="translate(-776.14 995.233)" fill="#fff"/></g><g transform="translate(109.075 -1086.962)" clip-path="url(#h)"><path d="M363.1-815.789l94.359-21.785,23.536,101.947-94.359,21.784Z" transform="translate(-374.491 834.465)" fill="#66bec0"/></g><g transform="translate(109.706 -1107.7)" clip-path="url(#i)"><path d="M376.919-920.682l84.229-19.446,29.921,129.6-84.229,19.446Z" transform="translate(-385.224 930.167)" fill="#4a9a9a"/></g><g transform="translate(126.141 -1097.863)" clip-path="url(#j)"><path d="M446.983-868.937l15.566-3.594,4.9,21.245-15.566,3.594Z" transform="translate(-452.875 870.918)" fill="#fff"/></g><g transform="translate(134.606 -1099.244)" clip-path="url(#k)"><path d="M478.485-883.219l26.259-6.062,5.3,22.938-26.259,6.062Z" transform="translate(-484.366 884.544)" fill="#fff"/></g><g transform="translate(143.538 -1103.769)" clip-path="url(#l)"><path d="M527.51-902.521l22.32-5.153,6.077,26.324-22.32,5.153Z" transform="translate(-529.135 902.513)" fill="#fff"/></g><g transform="translate(115.78 -919.39)" clip-path="url(#m)"><path d="M425.37-208.127h25.806v25.861H425.37Z" transform="translate(-426.716 206.782)" fill="#fa81a6"/></g><g transform="translate(209.401 -919.39)" clip-path="url(#n)"><path d="M773.37-208.127h25.807v25.861H773.37Z" transform="translate(-774.715 206.782)" fill="#fa81a6"/></g><g transform="translate(28.517 -1096.643)" clip-path="url(#o)"><path d="M101-867H337.742v194.5H101Z" transform="translate(-102.345 865.655)" fill="#4a3a5a"/></g><g transform="translate(95.554 -1032.292)" clip-path="url(#p)"><path d="M350.185-627.8H513.533v7.9H350.185Z" transform="translate(-351.53 626.453)" fill="#4a3a5a"/></g><g transform="translate(110.001 -1007.963)" clip-path="url(#q)"><path d="M403.889-537.365H551.056V-517.3H403.889Z" transform="translate(-405.234 536.02)" fill="#4a3a5a"/></g><g transform="translate(95.554 -1063.572)" clip-path="url(#r)"><path d="M350.185-744.07H396.8v97.689H350.185Z" transform="translate(-351.53 742.725)" fill="#4a3a5a"/></g><g transform="translate(122.715 -1063.572)" clip-path="url(#s)"><path d="M451.148-744.07h37.365v94.213H451.148Z" transform="translate(-452.493 742.725)" fill="#4a3a5a"/></g><g transform="translate(143.52 -1061.834)" clip-path="url(#t)"><path d="M528.482-737.611h32.741v89H528.482Z" transform="translate(-529.827 736.266)" fill="#4a3a5a"/></g><g transform="translate(166.058 -1061.834)" clip-path="url(#u)"><path d="M612.259-737.611h28.7v86.683h-28.7Z" transform="translate(-613.604 736.266)" fill="#4a3a5a"/></g><g transform="translate(192.064 -1058.938)" clip-path="url(#v)"><path d="M708.926-726.845h20.027v81.469H708.926Z" transform="translate(-710.271 725.5)" fill="#4a3a5a"/></g><g transform="translate(214.024 -1058.938)" clip-path="url(#w)"><path d="M790.556-726.845h14.826v77.415H790.556Z" transform="translate(-791.901 725.5)" fill="#4a3a5a"/></g><g transform="translate(236.563 -1056.621)" clip-path="url(#x)"><path d="M874.333-718.232H882.8v73.36h-8.469Z" transform="translate(-875.678 716.887)" fill="#4a3a5a"/></g></g></svg>