<svg xmlns="http://www.w3.org/2000/svg" xmlns:xlink="http://www.w3.org/1999/xlink" width="437.972" height="476.742" viewBox="0 0 437.972 476.742"><defs><clipPath id="a"><path d="M717.089-600.216c71.846,0,130.089-58.379,130.089-130.392S788.936-861,717.089-861,587-802.621,587-730.608,645.243-600.216,717.089-600.216Z" transform="translate(-587 861)" fill="none" clip-rule="evenodd"/></clipPath><clipPath id="b"><path d="M1106.954-1510.091a31.954,31.954,0,0,0,31.954-31.954A31.954,31.954,0,0,0,1106.954-1574,31.954,31.954,0,0,0,1075-1542.046,31.954,31.954,0,0,0,1106.954-1510.091Z" transform="translate(-1075 1574)" fill="none" clip-rule="evenodd"/></clipPath><clipPath id="c"><path d="M185.972-1094.754c102.709,0,185.972-83.33,185.972-186.123S288.681-1467,185.972-1467,0-1383.67,0-1280.877,83.262-1094.754,185.972-1094.754Z" transform="translate(0 1467)" fill="none" clip-rule="evenodd"/></clipPath><clipPath id="d"><path d="M272.88-725.1h16.928V-855.147H272.88Z" transform="translate(-272.88 855.147)" fill="none"/></clipPath><clipPath id="e"><path d="M1027.38-725.1h16.928V-855.147H1027.38Z" transform="translate(-1027.38 855.147)" fill="none"/></clipPath><clipPath id="f"><path d="M328.769-725.1h211.6V-855.147h-211.6Z" transform="translate(-328.769 855.147)" fill="none"/></clipPath><clipPath id="g"><path d="M259.318-466.578H507.27a3.635,3.635,0,0,1,3.635,3.635v17.44a3.635,3.635,0,0,1-3.635,3.635H259.318a3.635,3.635,0,0,1-3.635-3.635v-17.44A3.635,3.635,0,0,1,259.318-466.578Z" transform="translate(-255.684 466.578)" fill="none" clip-rule="evenodd"/></clipPath><clipPath id="h"><path d="M299.222-1087h222.09a4.846,4.846,0,0,1,4.846,4.846v19.568a4.846,4.846,0,0,1-4.846,4.846H299.222a4.846,4.846,0,0,1-4.846-4.846v-19.568A4.846,4.846,0,0,1,299.222-1087Z" transform="translate(-294.376 1087)" fill="none" clip-rule="evenodd"/></clipPath><clipPath id="i"><path d="M844.667-855.147h33.856v23.336a7.875,7.875,0,0,1-7.875,7.875H852.542a7.875,7.875,0,0,1-7.875-7.875v-23.336Z" transform="translate(-844.667 855.147)" fill="none" clip-rule="evenodd"/></clipPath><clipPath id="j"><path d="M732.889-1020.45h33.856v73.4a7.875,7.875,0,0,1-7.875,7.875H740.764a7.875,7.875,0,0,1-7.875-7.875v-73.4Z" transform="translate(-732.889 1020.45)" fill="none" clip-rule="evenodd"/></clipPath><clipPath id="k"><path d="M621.111-855.147h33.856v23.336a7.875,7.875,0,0,1-7.875,7.875H628.986a7.875,7.875,0,0,1-7.875-7.875v-23.336Z" transform="translate(-621.111 855.147)" fill="none" clip-rule="evenodd"/></clipPath><clipPath id="l"><path d="M509.333-1020.45h33.856v73.4a7.875,7.875,0,0,1-7.875,7.875H517.208a7.875,7.875,0,0,1-7.875-7.875v-73.4Z" transform="translate(-509.333 1020.45)" fill="none" clip-rule="evenodd"/></clipPath><clipPath id="m"><path d="M397.556-953.92h33.856v-42.915H397.556Z" transform="translate(-397.556 996.835)" fill="none"/></clipPath><clipPath id="n"><path d="M621.111-947.479h33.856v-42.915H621.111Z" transform="translate(-621.111 990.394)" fill="none"/></clipPath><clipPath id="o"><path d="M844.667-953.92h33.856v-42.915H844.667Z" transform="translate(-844.667 996.835)" fill="none"/></clipPath><clipPath id="p"><path d="M208.931-996.6l26.311,21.279L200.414-932.37,174.1-953.648Z" transform="translate(-174.103 996.601)" fill="none" clip-rule="evenodd"/></clipPath><clipPath id="q"><path d="M1004.354-996.6l-26.311,21.279,34.828,42.953,26.311-21.279Z" transform="translate(-978.043 996.601)" fill="none" clip-rule="evenodd"/></clipPath><clipPath id="r"><path d="M397.556-855.147h33.856v23.336a7.875,7.875,0,0,1-7.875,7.875H405.431a7.875,7.875,0,0,1-7.875-7.875v-23.336Z" transform="translate(-397.556 855.147)" fill="none" clip-rule="evenodd"/></clipPath><clipPath id="s"><path d="M174-855.147h33.856v23.336a7.875,7.875,0,0,1-7.875,7.875H181.875A7.875,7.875,0,0,1,174-831.811v-23.336Z" transform="translate(-174 855.147)" fill="none" clip-rule="evenodd"/></clipPath><clipPath id="t"><path d="M1068.222-855.147h33.856v23.336a7.875,7.875,0,0,1-7.875,7.875H1076.1a7.875,7.875,0,0,1-7.875-7.875v-23.336Z" transform="translate(-1068.222 855.147)" fill="none" clip-rule="evenodd"/></clipPath><clipPath id="u"><path d="M285.778-1020.45h33.856v73.4a7.875,7.875,0,0,1-7.875,7.875H293.653a7.875,7.875,0,0,1-7.875-7.875v-73.4Z" transform="translate(-285.778 1020.45)" fill="none" clip-rule="evenodd"/></clipPath><clipPath id="v"><path d="M956.444-1020.45H990.3v73.4a7.875,7.875,0,0,1-7.875,7.875H964.319a7.875,7.875,0,0,1-7.875-7.875v-73.4Z" transform="translate(-956.444 1020.45)" fill="none" clip-rule="evenodd"/></clipPath><clipPath id="w"><path d="M280.844-1033.33h238.52a1.514,1.514,0,0,1,1.514,1.514v9.976a1.514,1.514,0,0,1-1.514,1.514H280.844a1.514,1.514,0,0,1-1.514-1.514v-9.976A1.514,1.514,0,0,1,280.844-1033.33Z" transform="translate(-279.329 1033.33)" fill="none" clip-rule="evenodd"/></clipPath><clipPath id="x"><path d="M279.329-1011.862H520.878v4.988a1.514,1.514,0,0,1-1.514,1.514H280.844a1.514,1.514,0,0,1-1.514-1.514v-4.988Z" transform="translate(-279.329 1011.862)" fill="none" clip-rule="evenodd"/></clipPath></defs><g transform="translate(0 1574)"><g transform="translate(177.794 -1358.043)" clip-path="url(#a)"><path d="M582-866H845.208v263.813H582Z" transform="translate(-583.514 864.486)" fill="rgba(236,227,238,0.33)"/></g><g transform="translate(325.602 -1574)" clip-path="url(#b)"><path d="M1070-1579h66.938v66.938H1070Z" transform="translate(-1071.514 1577.486)" fill="rgba(236,227,238,0.33)"/></g><g transform="translate(0 -1541.591)" clip-path="url(#c)"><path d="M-5-1472H369.972v375.275H-5Z" transform="translate(3.486 1470.486)" fill="rgba(236,227,238,0.33)"/></g><g transform="translate(82.651 -1356.27)" clip-path="url(#d)"><path d="M267.88-860.147h19.957v133.075H267.88Z" transform="translate(-269.395 858.632)" fill="#66bec0"/></g><g transform="translate(311.178 -1356.27)" clip-path="url(#e)"><path d="M1022.38-860.147h19.957v133.075H1022.38Z" transform="translate(-1023.894 858.632)" fill="#66bec0"/></g><g transform="translate(99.579 -1356.27)" clip-path="url(#f)"><path d="M323.769-860.147H538.4v133.075H323.769Z" transform="translate(-325.284 858.632)" fill="#94e4e6"/></g><g transform="translate(77.443 -1238.578)" clip-path="url(#g)"><path d="M250.684-471.578h258.25v27.738H250.684Z" transform="translate(-252.198 470.064)" fill="#545d74"/></g><g transform="translate(89.162 -1426.495)" clip-path="url(#h)"><path d="M289.376-1092H524.187v32.289H289.376Z" transform="translate(-290.891 1090.486)" fill="#545d74"/></g><g transform="translate(255.837 -1356.27)" clip-path="url(#i)"><path d="M839.667-860.147h36.885v34.24H839.667Z" transform="translate(-841.181 858.632)" fill="#eceaea"/></g><g transform="translate(221.981 -1406.338)" clip-path="url(#j)"><path d="M727.889-1025.45h36.885v84.308H727.889Z" transform="translate(-729.403 1023.936)" fill="#545d74"/></g><g transform="translate(188.126 -1356.27)" clip-path="url(#k)"><path d="M616.111-860.147H653v34.24H616.111Z" transform="translate(-617.625 858.632)" fill="#eceaea"/></g><g transform="translate(154.27 -1406.338)" clip-path="url(#l)"><path d="M504.333-1025.45h36.885v84.308H504.333Z" transform="translate(-505.848 1023.936)" fill="#545d74"/></g><g transform="translate(120.414 -1399.185)" clip-path="url(#m)"><path d="M392.556-1001.835H429.44v45.944H392.556Z" transform="translate(-394.07 1000.321)" fill="#fff"/></g><g transform="translate(188.126 -1397.234)" clip-path="url(#n)"><path d="M616.111-995.394H653v45.944H616.111Z" transform="translate(-617.625 993.88)" fill="#fff"/></g><g transform="translate(255.837 -1399.185)" clip-path="url(#o)"><path d="M839.667-1001.835h36.885v45.944H839.667Z" transform="translate(-841.181 1000.321)" fill="#fff"/></g><g transform="translate(52.733 -1399.114)" clip-path="url(#p)"><path d="M203.791-1003.761l28.679,23.223-36.72,45.345-28.679-23.223Z" transform="translate(-169.201 1001.592)" fill="#fff"/></g><g transform="translate(296.235 -1399.114)" clip-path="url(#q)"><path d="M999.69-1003.761l-28.679,23.223,36.72,45.345,28.679-23.223Z" transform="translate(-973.141 1001.592)" fill="#fff"/></g><g transform="translate(120.414 -1356.27)" clip-path="url(#r)"><path d="M392.556-860.147H429.44v34.24H392.556Z" transform="translate(-394.07 858.632)" fill="#eceaea"/></g><g transform="translate(52.702 -1356.27)" clip-path="url(#s)"><path d="M169-860.147h36.885v34.24H169Z" transform="translate(-170.514 858.632)" fill="#eceaea"/></g><g transform="translate(323.549 -1356.27)" clip-path="url(#t)"><path d="M1063.222-860.147h36.885v34.24h-36.885Z" transform="translate(-1064.736 858.632)" fill="#eceaea"/></g><g transform="translate(86.558 -1406.338)" clip-path="url(#u)"><path d="M280.778-1025.45h36.885v84.308H280.778Z" transform="translate(-282.292 1023.936)" fill="#545d74"/></g><g transform="translate(289.693 -1406.338)" clip-path="url(#v)"><path d="M951.444-1025.45h36.885v84.308H951.444Z" transform="translate(-952.959 1023.936)" fill="#545d74"/></g><g transform="translate(84.605 -1410.239)" clip-path="url(#w)"><path d="M274.329-1038.33H518.907v16.033H274.329Z" transform="translate(-275.844 1036.816)" fill="#66bec0"/></g><g transform="translate(84.605 -1403.737)" clip-path="url(#x)"><path d="M274.329-1016.862H518.907v9.531H274.329Z" transform="translate(-275.844 1015.348)" fill="#4b9a9a"/></g></g></svg>