<svg xmlns="http://www.w3.org/2000/svg" xmlns:xlink="http://www.w3.org/1999/xlink" width="312.265" height="339.906" viewBox="0 0 312.265 339.906"><defs><clipPath id="a"><path d="M679.751-675.067A92.859,92.859,0,0,0,772.5-768.033,92.859,92.859,0,0,0,679.751-861,92.859,92.859,0,0,0,587-768.033,92.859,92.859,0,0,0,679.751-675.067Z" transform="translate(-587 861)" fill="none" clip-rule="evenodd"/></clipPath><clipPath id="b"><path d="M1097.783-1528.434a22.782,22.782,0,0,0,22.783-22.782A22.783,22.783,0,0,0,1097.783-1574,22.783,22.783,0,0,0,1075-1551.217,22.783,22.783,0,0,0,1097.783-1528.434Z" transform="translate(-1075 1574)" fill="none" clip-rule="evenodd"/></clipPath><clipPath id="c"><path d="M132.594-1201.6a132.648,132.648,0,0,0,132.594-132.7A132.648,132.648,0,0,0,132.594-1467,132.648,132.648,0,0,0,0-1334.3,132.648,132.648,0,0,0,132.594-1201.6Z" transform="translate(0 1467)" fill="none" clip-rule="evenodd"/></clipPath><clipPath id="d"><path d="M272.88-762.427H284.95v-92.72H272.88Z" transform="translate(-272.88 855.147)" fill="none"/></clipPath><clipPath id="e"><path d="M1027.38-762.427h12.069v-92.72H1027.38Z" transform="translate(-1027.38 855.147)" fill="none"/></clipPath><clipPath id="f"><path d="M328.769-762.427H479.635v-92.72H328.769Z" transform="translate(-328.769 855.147)" fill="none"/></clipPath><clipPath id="g"><path d="M258.275-466.578H435.059a2.591,2.591,0,0,1,2.591,2.591v12.434a2.591,2.591,0,0,1-2.591,2.591H258.275a2.591,2.591,0,0,1-2.591-2.591v-12.434A2.591,2.591,0,0,1,258.275-466.578Z" transform="translate(-255.684 466.578)" fill="none" clip-rule="evenodd"/></clipPath><clipPath id="h"><path d="M297.831-1087H456.177a3.455,3.455,0,0,1,3.455,3.455v13.952a3.455,3.455,0,0,1-3.455,3.455H297.831a3.455,3.455,0,0,1-3.455-3.455v-13.952A3.455,3.455,0,0,1,297.831-1087Z" transform="translate(-294.376 1087)" fill="none" clip-rule="evenodd"/></clipPath><clipPath id="i"><path d="M844.667-855.147h24.138v16.638a5.615,5.615,0,0,1-5.615,5.615H850.281a5.615,5.615,0,0,1-5.615-5.615v-16.638Z" transform="translate(-844.667 855.147)" fill="none" clip-rule="evenodd"/></clipPath><clipPath id="j"><path d="M732.889-1020.45h24.139v52.335a5.615,5.615,0,0,1-5.615,5.615H738.5a5.615,5.615,0,0,1-5.615-5.615v-52.335Z" transform="translate(-732.889 1020.45)" fill="none" clip-rule="evenodd"/></clipPath><clipPath id="k"><path d="M621.111-855.147H645.25v16.638a5.615,5.615,0,0,1-5.615,5.615H626.726a5.615,5.615,0,0,1-5.615-5.615v-16.638Z" transform="translate(-621.111 855.147)" fill="none" clip-rule="evenodd"/></clipPath><clipPath id="l"><path d="M509.333-1020.45h24.138v52.335a5.615,5.615,0,0,1-5.615,5.615H514.948a5.615,5.615,0,0,1-5.615-5.615v-52.335Z" transform="translate(-509.333 1020.45)" fill="none" clip-rule="evenodd"/></clipPath><clipPath id="m"><path d="M397.556-966.237h24.138v-30.6H397.556Z" transform="translate(-397.556 996.835)" fill="none"/></clipPath><clipPath id="n"><path d="M621.111-959.8H645.25v-30.6H621.111Z" transform="translate(-621.111 990.395)" fill="none"/></clipPath><clipPath id="o"><path d="M844.667-966.237h24.138v-30.6H844.667Z" transform="translate(-844.667 996.835)" fill="none"/></clipPath><clipPath id="p"><path d="M198.935-996.6l18.759,15.171-24.831,30.624L174.1-965.977Z" transform="translate(-174.103 996.601)" fill="none" clip-rule="evenodd"/></clipPath><clipPath id="q"><path d="M996.8-996.6,978.044-981.43l24.831,30.624,18.759-15.171Z" transform="translate(-978.044 996.601)" fill="none" clip-rule="evenodd"/></clipPath><clipPath id="r"><path d="M397.556-855.147h24.138v16.638a5.615,5.615,0,0,1-5.615,5.615H403.17a5.615,5.615,0,0,1-5.615-5.615v-16.638Z" transform="translate(-397.556 855.147)" fill="none" clip-rule="evenodd"/></clipPath><clipPath id="s"><path d="M174-855.147h24.138v16.638a5.615,5.615,0,0,1-5.615,5.615H179.615A5.615,5.615,0,0,1,174-838.509v-16.638Z" transform="translate(-174 855.147)" fill="none" clip-rule="evenodd"/></clipPath><clipPath id="t"><path d="M1068.222-855.147h24.138v16.638a5.615,5.615,0,0,1-5.615,5.615h-12.909a5.615,5.615,0,0,1-5.615-5.615v-16.638Z" transform="translate(-1068.222 855.147)" fill="none" clip-rule="evenodd"/></clipPath><clipPath id="u"><path d="M285.778-1020.45h24.138v52.335A5.615,5.615,0,0,1,304.3-962.5H291.392a5.615,5.615,0,0,1-5.615-5.615v-52.335Z" transform="translate(-285.778 1020.45)" fill="none" clip-rule="evenodd"/></clipPath><clipPath id="v"><path d="M956.444-1020.45h24.139v52.335a5.615,5.615,0,0,1-5.615,5.615H962.059a5.615,5.615,0,0,1-5.615-5.615v-52.335Z" transform="translate(-956.444 1020.45)" fill="none" clip-rule="evenodd"/></clipPath><clipPath id="w"><path d="M280.409-1033.33H450.468a1.08,1.08,0,0,1,1.08,1.08v7.112a1.08,1.08,0,0,1-1.08,1.08H280.409a1.08,1.08,0,0,1-1.08-1.08v-7.112A1.08,1.08,0,0,1,280.409-1033.33Z" transform="translate(-279.329 1033.33)" fill="none" clip-rule="evenodd"/></clipPath><clipPath id="x"><path d="M279.329-1011.862H451.548v3.556a1.08,1.08,0,0,1-1.08,1.08H280.409a1.08,1.08,0,0,1-1.08-1.08v-3.556Z" transform="translate(-279.329 1011.862)" fill="none" clip-rule="evenodd"/></clipPath><clipPath id="y"><path d="M555.864-707.3l-.932,2.316v7.41L554-651.262c1.333.606,1.585,1.624,5.126,1.39h8.388L602-651.262c4.078.444,4.88-.58,5.126-1.853L602-690.166l-2.33-16.21Z" transform="translate(-554 707.302)" fill="none" clip-rule="evenodd"/></clipPath><clipPath id="z"><path d="M576.384-762.769q.466,5.558-.932,5.558-1.086-.261-.932-5.558l-8.388.463c-1.008-.831-4.282-2.118-3.728-2.779h6.99a19.287,19.287,0,0,1,.932-8.337c1.917-5.148,4.982-6.8,8.388-7.41,2.381-.361,4.643-.245,6.524,1.39q7.922-.926,11.184,11.578c1.864.817,3.728.381,5.592,0v1.853l4.194,1.853H597.82q0,5.558-.932,5.094-.932,0-.932-5.094Z" transform="translate(-562.342 781)" fill="none" clip-rule="evenodd"/></clipPath><clipPath id="aa"><path d="M601.474-759.014l3.728-.463c-.762-10.1,6.058-12.968,7.456-13.431C611.26-773.371,602.109-775.54,601.474-759.014Z" transform="translate(-601.474 773.257)" fill="none" clip-rule="evenodd"/></clipPath><clipPath id="ab"><path d="M636.016-765.423c2.225,2.245,4.193,4.992,4.66,10.652l-13.514.926C626.7-758.939,629.049-766.212,636.016-765.423Z" transform="translate(-627.105 765.482)" fill="none" clip-rule="evenodd"/></clipPath><clipPath id="ac"><path d="M679.158-765.208c2.8,1.1,5.6,2.259,7.456,10.189l-3.262.463C683.448-758.833,681.425-762.08,679.158-765.208Z" transform="translate(-679.158 765.208)" fill="none" clip-rule="evenodd"/></clipPath><clipPath id="ad"><path d="M719.7-578.939h39.744q.462,0,.924,1.861l1.849,30.7a3.278,3.278,0,0,1-2.773,2.791L725.7-540.8l-9.7-5.116v-1.4Z" transform="translate(-716 578.939)" fill="none" clip-rule="evenodd"/></clipPath><clipPath id="ae"><path d="M724.318-635.146l1.386,36.28-9.7-5.116v-1.4l6.008-2.326,1.386-28.373-2.773-.93,6.932-.93c0-17.21,12.015-16.279,14.788-13.489,2.773,0,6.085-.362,9.7,11.628h3.7v1.4l3.235,1.4-6.47.465q-.284,3.828-.924,3.721t-.924-3.721l-16.175.93q-.443,3.624-.924,3.721t-1.386-3.721Z" transform="translate(-716 653)" fill="none" clip-rule="evenodd"/></clipPath><clipPath id="af"><path d="M778.024-632.587H780.8c-.394-6.656,1.372-11.587,6.932-13.489Q777.7-647.35,778.024-632.587Z" transform="translate(-778.014 646.177)" fill="none" clip-rule="evenodd"/></clipPath><clipPath id="ag"><path d="M799.46-627.619l12.016-.465c-.305-4.848-1.424-8.954-4.621-11.163C803.018-639.023,799.62-637.634,799.46-627.619Z" transform="translate(-799.46 639.247)" fill="none" clip-rule="evenodd"/></clipPath><clipPath id="ah"><path d="M850.87-628.549h-2.311c-.924-5.116-1.849-7.907-4.159-10.7C847.635-638.317,849.483-634.131,850.87-628.549Z" transform="translate(-844.4 639.247)" fill="none" clip-rule="evenodd"/></clipPath><clipPath id="ai"><path d="M428.585-650.936c-.9.381-1.242,1.459-1.386,2.79l-4.159,39.06c-.305,4.4,1.232,4.761,2.773,5.115l33.274,2.325,9.7-5.58-1.849-40.92a5.2,5.2,0,0,0-1.386-3.255Z" transform="translate(-423 651.401)" fill="none" clip-rule="evenodd"/></clipPath><clipPath id="aj"><path d="M449.313-704.713v2.325l-2.773.93h6.932l-.462,5.115H454.4l.462-5.115,16.637.93-.462,5.115h1.848l.462-4.65,6.47.93L477.5-652.295l9.7-5.58L480.738-661v-39.525l2.773-1.395q-6.008,0-6.008-.465c0-.528,0-1.86-.045-2.946s-.357-7.254-5.038-9.609a9.019,9.019,0,0,0-9.243.465c-4.89-.286-7.548,3.891-9.133,10.215Z" transform="translate(-446.54 716)" fill="none" clip-rule="evenodd"/></clipPath><clipPath id="ak"><path d="M487.2-693.193h2.773a20.9,20.9,0,0,1,3.7-9.3C492.746-702.493,488.959-701.813,487.2-693.193Z" transform="translate(-487.2 702.493)" fill="none" clip-rule="evenodd"/></clipPath><clipPath id="al"><path d="M506.46-693.55c6.386.432,9.215.682,12.015.93-.3-5.113-1.849-9.3-6.47-10.23,0,0-1.083-.221-1.386,0C509.175-701.8,507.782-698.808,506.46-693.55Z" transform="translate(-506.46 702.949)" fill="none" clip-rule="evenodd"/></clipPath><clipPath id="am"><path d="M544.989-696.938c.924-9.765-6.817-12.072-6.47-12.09,8.781-.465,9.227,6.975,9.7,12.09Z" transform="translate(-538.507 709.049)" fill="none" clip-rule="evenodd"/></clipPath></defs><g transform="translate(0 1574)"><g transform="translate(126.763 -1420.027)" clip-path="url(#a)"><path d="M582-866H769.661v188.093H582Z" transform="translate(-583.08 864.92)" fill="rgba(255,255,255,0.38)"/></g><g transform="translate(232.147 -1574)" clip-path="url(#b)"><path d="M1070-1579h47.725v47.725H1070Z" transform="translate(-1071.08 1577.92)" fill="rgba(255,255,255,0.38)"/></g><g transform="translate(0 -1550.893)" clip-path="url(#c)"><path d="M-5-1472H262.347v267.563H-5Z" transform="translate(3.92 1470.92)" fill="rgba(255,255,255,0.38)"/></g><g transform="translate(58.929 -1418.763)" clip-path="url(#d)"><path d="M267.88-860.147h14.229v94.88H267.88Z" transform="translate(-268.96 859.067)" fill="#66bec0"/></g><g transform="translate(221.863 -1418.763)" clip-path="url(#e)"><path d="M1022.38-860.147h14.229v94.88H1022.38Z" transform="translate(-1023.46 859.067)" fill="#66bec0"/></g><g transform="translate(70.998 -1418.763)" clip-path="url(#f)"><path d="M323.769-860.147H476.794v94.88H323.769Z" transform="translate(-324.849 859.067)" fill="#94e4e6"/></g><g transform="translate(55.215 -1334.852)" clip-path="url(#g)"><path d="M250.684-471.578H434.81V-451.8H250.684Z" transform="translate(-251.764 470.498)" fill="#545d74"/></g><g transform="translate(63.571 -1468.832)" clip-path="url(#h)"><path d="M289.376-1092H456.791v23.021H289.376Z" transform="translate(-290.456 1090.92)" fill="#545d74"/></g><g transform="translate(182.406 -1418.763)" clip-path="url(#i)"><path d="M839.667-860.147h26.3v24.412h-26.3Z" transform="translate(-840.746 859.067)" fill="#eceaea"/></g><g transform="translate(158.268 -1454.461)" clip-path="url(#j)"><path d="M727.889-1025.45h26.3v60.11h-26.3Z" transform="translate(-728.969 1024.37)" fill="#545d74"/></g><g transform="translate(134.129 -1418.763)" clip-path="url(#k)"><path d="M616.111-860.147h26.3v24.412h-26.3Z" transform="translate(-617.191 859.067)" fill="#eceaea"/></g><g transform="translate(109.991 -1454.461)" clip-path="url(#l)"><path d="M504.333-1025.45h26.3v60.11h-26.3Z" transform="translate(-505.413 1024.37)" fill="#545d74"/></g><g transform="translate(85.852 -1449.361)" clip-path="url(#m)"><path d="M392.556-1001.835h26.3v32.757h-26.3Z" transform="translate(-393.635 1000.755)" fill="#fff"/></g><g transform="translate(134.129 -1447.97)" clip-path="url(#n)"><path d="M616.111-995.394h26.3v32.757h-26.3Z" transform="translate(-617.191 994.315)" fill="#fff"/></g><g transform="translate(182.406 -1449.361)" clip-path="url(#o)"><path d="M839.667-1001.835h26.3v32.757h-26.3Z" transform="translate(-840.746 1000.755)" fill="#fff"/></g><g transform="translate(37.598 -1449.31)" clip-path="url(#p)"><path d="M193.251-1003.761,213.7-987.2l-26.18,32.33-20.447-16.558Z" transform="translate(-168.59 1002.215)" fill="#fff"/></g><g transform="translate(211.209 -1449.31)" clip-path="url(#q)"><path d="M991.459-1003.761,971.011-987.2l26.18,32.33,20.447-16.558Z" transform="translate(-972.53 1002.215)" fill="#fff"/></g><g transform="translate(85.852 -1418.763)" clip-path="url(#r)"><path d="M392.556-860.147h26.3v24.412h-26.3Z" transform="translate(-393.635 859.067)" fill="#eceaea"/></g><g transform="translate(37.575 -1418.763)" clip-path="url(#s)"><path d="M169-860.147h26.3v24.412H169Z" transform="translate(-170.08 859.067)" fill="#eceaea"/></g><g transform="translate(230.683 -1418.763)" clip-path="url(#t)"><path d="M1063.222-860.147h26.3v24.412h-26.3Z" transform="translate(-1064.302 859.067)" fill="#eceaea"/></g><g transform="translate(61.714 -1454.461)" clip-path="url(#u)"><path d="M280.778-1025.45h26.3v60.11h-26.3Z" transform="translate(-281.858 1024.37)" fill="#545d74"/></g><g transform="translate(206.545 -1454.461)" clip-path="url(#v)"><path d="M951.444-1025.45h26.3v60.11h-26.3Z" transform="translate(-952.524 1024.37)" fill="#545d74"/></g><g transform="translate(60.321 -1457.242)" clip-path="url(#w)"><path d="M274.329-1038.33H448.708v11.432H274.329Z" transform="translate(-275.409 1037.25)" fill="#66bec0"/></g><g transform="translate(60.321 -1452.606)" clip-path="url(#x)"><path d="M274.329-1016.862H448.708v6.8H274.329Z" transform="translate(-275.409 1015.782)" fill="#4b9a9a"/></g><g transform="translate(119.637 -1386.836)" clip-path="url(#y)"><path d="M549-712.3h55.283v59.623H549Z" transform="translate(-550.08 711.223)" fill="#ffce4e"/></g><g transform="translate(121.438 -1402.751)" clip-path="url(#z)"><path d="M557.342-786h46.026v25.948H557.342Z" transform="translate(-558.421 784.92)" fill="#f9c33d"/></g><g transform="translate(129.889 -1401.079)" clip-path="url(#aa)"><path d="M596.474-778.257h13.344v16.4H596.474Z" transform="translate(-597.553 777.177)" fill="#94e4e6"/></g><g transform="translate(135.424 -1399.4)" clip-path="url(#ab)"><path d="M622.105-770.482h15.73v13.8h-15.73Z" transform="translate(-623.185 769.402)" fill="#94e4e6"/></g><g transform="translate(146.665 -1399.341)" clip-path="url(#ac)"><path d="M674.158-770.208h9.616V-757.4h-9.616Z" transform="translate(-675.238 769.128)" fill="#94e4e6"/></g><g transform="translate(154.621 -1359.116)" clip-path="url(#ad)"><path d="M711-583.939h48.373v40.3H711Z" transform="translate(-712.08 582.86)" fill="#fdb7b4"/></g><g transform="translate(154.621 -1375.109)" clip-path="url(#ae)"><path d="M711-658h45.138v56.293H711Z" transform="translate(-712.08 656.92)" fill="#ffa6a4"/></g><g transform="translate(168.013 -1373.636)" clip-path="url(#af)"><path d="M773.014-651.177h11.874v15.749H773.014Z" transform="translate(-774.094 650.097)" fill="#94e4e6"/></g><g transform="translate(172.644 -1372.139)" clip-path="url(#ag)"><path d="M794.46-644.247h14.175v13.788H794.46Z" transform="translate(-795.54 643.167)" fill="#94e4e6"/></g><g transform="translate(182.349 -1372.139)" clip-path="url(#ah)"><path d="M839.4-644.247h8.629v12.857H839.4Z" transform="translate(-840.48 643.167)" fill="#94e4e6"/></g><g transform="translate(91.347 -1374.764)" clip-path="url(#ai)"><path d="M418-656.4h47.95v51.915H418Z" transform="translate(-419.08 655.322)" fill="#66bec0"/></g><g transform="translate(96.431 -1388.714)" clip-path="url(#aj)"><path d="M441.54-721h42.827v65.865H441.54Z" transform="translate(-442.62 719.92)" fill="#4a9a9a"/></g><g transform="translate(105.211 -1385.797)" clip-path="url(#ak)"><path d="M482.2-707.493h8.629v11.459H482.2Z" transform="translate(-483.28 706.413)" fill="#94e4e6"/></g><g transform="translate(109.37 -1385.896)" clip-path="url(#al)"><path d="M501.46-707.949h14.175v12.488H501.46Z" transform="translate(-502.54 706.869)" fill="#94e4e6"/></g><g transform="translate(116.291 -1387.213)" clip-path="url(#am)"><path d="M533.507-714.049h11.876v14.27H533.507Z" transform="translate(-534.587 712.969)" fill="#94e4e6"/></g></g></svg>