<?xml version="1.0" encoding="UTF-8"?>
<svg width="1200px" height="630px" viewBox="0 0 1200 630" version="1.1" xmlns="http://www.w3.org/2000/svg" xmlns:xlink="http://www.w3.org/1999/xlink" style="background: #f2f4fb;">
    <title>Okam logo (dark)</title>
    <g id="Export" stroke="none" stroke-width="1" fill="none" fill-rule="evenodd">
        <g id="Group-15" transform="translate(89.000000, 207.000000)">
            <g id="Group-13">
                <path d="M249.857745,30.0849606 C262.325032,30.0849606 272.431765,40.1916937 272.431765,52.6589808 L272.431765,214.828956 C272.431765,227.296243 262.325032,237.402976 249.857745,237.402976 C237.390458,237.402976 227.283725,227.296243 227.283725,214.828956 L227.283725,52.6589808 C227.283725,40.1916937 237.390458,30.0849606 249.857745,30.0849606 Z" id="Rectangle" fill="#000000"></path>
                <path d="M283.289754,28.028851 L329.084276,147.906514 C334.438993,161.923712 347.918072,171.156821 362.923066,171.085931 C372.476631,171.040795 380.184736,163.259511 380.139601,153.705946 C380.129824,151.636564 379.748812,149.585726 379.014676,147.650919 L328.761882,15.2102956 L283.289754,28.028851 Z" id="Rectangle" fill="#000000" transform="translate(335.575910, 93.207024) scale(-1, 1) rotate(156.000000) translate(-335.575910, -93.207024) "></path>
                <path d="M285.570592,112.966446 L329.794247,228.732004 C335.148964,242.749203 348.628043,251.982311 363.633037,251.911421 C373.186602,251.866285 380.894707,244.085001 380.849572,234.531436 C380.839795,232.462054 380.458783,230.411216 379.724647,228.476409 L330.563201,98.9120194 L285.570592,112.966446 Z" id="Rectangle" fill="#000000" transform="translate(337.071314, 175.470631) scale(-1, -1) rotate(156.000000) translate(-337.071314, -175.470631) "></path>
                <ellipse id="Oval" fill="#000000" cx="102.547793" cy="133.54857" rx="102.547793" ry="103.854406"></ellipse>
                <ellipse id="Oval" fill="#f2f4fb" cx="102.547793" cy="133.54857" rx="57.3997522" ry="58.1311117"></ellipse>
            </g>
            <path d="M536.672802,24 C527.221176,24 519.559119,31.6620567 519.559119,41.1136827 C519.559119,43.1609634 519.926465,45.1916342 520.643694,47.1091689 L581.621116,210.134085 C586.764803,223.885882 599.90463,233 614.586912,233 C623.960851,233 631.559931,225.400921 631.559931,216.026982 C631.559931,214.008972 631.200056,212.007134 630.497207,210.115478 L569.938852,47.1279749 C564.772933,33.2243576 551.505107,24 536.672802,24 Z" id="Rectangle" fill="#000000"></path>
            <path d="M454.672802,24 C445.221176,24 437.559119,31.6620567 437.559119,41.1136827 C437.559119,43.1609634 437.926465,45.1916342 438.643694,47.1091689 L499.621116,210.134085 C504.764803,223.885882 517.90463,233 532.586912,233 C541.960851,233 549.559931,225.400921 549.559931,216.026982 C549.559931,214.008972 549.200056,212.007134 548.497207,210.115478 L487.938852,47.1279749 C482.772933,33.2243576 469.505107,24 454.672802,24 Z" id="Rectangle" fill="#000000" transform="translate(493.500000, 128.500000) scale(-1, 1) translate(-493.500000, -128.500000) "></path>
            <path d="M760.672802,24 C751.221176,24 743.559119,31.6620567 743.559119,41.1136827 C743.559119,43.1609634 743.926465,45.1916342 744.643694,47.1091689 L805.621116,210.134085 C810.764803,223.885882 823.90463,233 838.586912,233 C847.960851,233 855.559931,225.400921 855.559931,216.026982 C855.559931,214.008972 855.200056,212.007134 854.497207,210.115478 L793.938852,47.1279749 C788.772933,33.2243576 775.505107,24 760.672802,24 Z" id="Rectangle" fill="#000000"></path>
            <path d="M678.672802,24 C669.221176,24 661.559119,31.6620567 661.559119,41.1136827 C661.559119,43.1609634 661.926465,45.1916342 662.643694,47.1091689 L723.621116,210.134085 C728.764803,223.885882 741.90463,233 756.586912,233 C765.960851,233 773.559931,225.400921 773.559931,216.026982 C773.559931,214.008972 773.200056,212.007134 772.497207,210.115478 L711.938852,47.1279749 C706.772933,33.2243576 693.505107,24 678.672802,24 Z" id="Rectangle" fill="#000000" transform="translate(717.500000, 128.500000) scale(-1, 1) translate(-717.500000, -128.500000) "></path>
            <path d="M920.672802,24 C911.221176,24 903.559119,31.6620567 903.559119,41.1136827 C903.559119,43.1609634 903.926465,45.1916342 904.643694,47.1091689 L965.621116,210.134085 C970.764803,223.885882 983.90463,233 998.586912,233 C1007.96085,233 1015.55993,225.400921 1015.55993,216.026982 C1015.55993,214.008972 1015.20006,212.007134 1014.49721,210.115478 L953.938852,47.1279749 C948.772933,33.2243576 935.505107,24 920.672802,24 Z" id="Rectangle" fill="#000000"></path>
            <path d="M840.672802,24 C831.221176,24 823.559119,31.6620567 823.559119,41.1136827 C823.559119,43.1609634 823.926465,45.1916342 824.643694,47.1091689 L885.621116,210.134085 C890.764803,223.885882 903.90463,233 918.586912,233 C927.960851,233 935.559931,225.400921 935.559931,216.026982 C935.559931,214.008972 935.200056,212.007134 934.497207,210.115478 L873.938852,47.1279749 C868.772933,33.2243576 855.505107,24 840.672802,24 Z" id="Rectangle" fill="#000000" transform="translate(879.500000, 128.500000) scale(-1, 1) translate(-879.500000, -128.500000) "></path>
        </g>
    </g>
</svg>