<?xml version="1.0" encoding="UTF-8"?>
<svg width="1050px" height="600px" viewBox="0 0 1050 600" version="1.1" xmlns="http://www.w3.org/2000/svg" xmlns:xlink="http://www.w3.org/1999/xlink" style="background: #FFFFFF;">
    <title>okam logo</title>
    <g id="Export" stroke="none" stroke-width="1" fill="none" fill-rule="evenodd">
        <g id="Group-15" transform="translate(104.000000, 190.000000)">
            <g id="Group-13">
                <path d="M206.012515,24.7891061 C216.292033,24.7891061 224.625229,33.1223019 224.625229,43.4018199 L224.625229,177.000225 C224.625229,187.279743 216.292033,195.612939 206.012515,195.612939 C195.732998,195.612939 187.399802,187.279743 187.399802,177.000225 L187.399802,43.4018199 C187.399802,33.1223019 195.732998,24.7891061 206.012515,24.7891061 Z" id="Rectangle" fill="#1BB776"></path>
                <path d="M233.569006,23.0797243 L271.346145,121.871308 C275.765054,133.427264 286.878265,141.039081 299.250161,140.983719 C307.121482,140.948497 313.473896,134.538976 313.438673,126.667655 C313.431031,124.95987 313.116517,123.26736 312.51013,121.670839 L271.054903,12.5257333 L233.569006,23.0797243 Z" id="Rectangle" fill="#1BB776" transform="translate(276.689781, 76.800728) scale(-1, 1) rotate(156.000000) translate(-276.689781, -76.800728) "></path>
                <path d="M235.450044,93.0642482 L271.931277,188.466886 C276.350185,200.022843 287.463396,207.63466 299.835293,207.579298 C307.706614,207.544075 314.059027,201.134555 314.023805,193.263233 C314.016163,191.555448 313.701649,189.862939 313.095262,188.266417 L272.54036,81.4917261 L235.450044,93.0642482 Z" id="Rectangle" fill="#1BB776" transform="translate(277.922866, 144.581514) scale(-1, -1) rotate(156.000000) translate(-277.922866, -144.581514) "></path>
                <ellipse id="Oval" fill="#1BB776" cx="84.552627" cy="110.04002" rx="84.552627" ry="85.572919"></ellipse>
                <ellipse id="Oval" fill="#FFFFFF" cx="84.552627" cy="110.04002" rx="47.3271995" ry="47.8982943"></ellipse>
            </g>
            <path d="M442.398773,20 C434.597081,20 428.272559,26.3245213 428.272559,34.1262136 C428.272559,35.8233061 428.578367,37.5065114 429.175324,39.0951477 L479.532108,173.105854 C483.803229,184.472265 494.673555,192 506.815951,192 C514.553591,192 520.826188,185.727403 520.826188,177.989763 C520.826188,176.316912 520.526594,174.657582 519.941595,173.090353 L469.931041,39.1108135 C465.641434,27.6188476 454.665232,20 442.398773,20 Z" id="Rectangle" fill="#1BB776"></path>
            <path d="M374.398773,20 C366.597081,20 360.272559,26.3245213 360.272559,34.1262136 C360.272559,35.8233061 360.578367,37.5065114 361.175324,39.0951477 L411.532108,173.105854 C415.803229,184.472265 426.673555,192 438.815951,192 C446.553591,192 452.826188,185.727403 452.826188,177.989763 C452.826188,176.316912 452.526594,174.657582 451.941595,173.090353 L401.931041,39.1108135 C397.641434,27.6188476 386.665232,20 374.398773,20 Z" id="Rectangle" fill="#1BB776" transform="translate(406.500000, 106.000000) scale(-1, 1) translate(-406.500000, -106.000000) "></path>
            <path d="M626.398773,20 C618.597081,20 612.272559,26.3245213 612.272559,34.1262136 C612.272559,35.8233061 612.578367,37.5065114 613.175324,39.0951477 L663.532108,173.105854 C667.803229,184.472265 678.673555,192 690.815951,192 C698.553591,192 704.826188,185.727403 704.826188,177.989763 C704.826188,176.316912 704.526594,174.657582 703.941595,173.090353 L653.931041,39.1108135 C649.641434,27.6188476 638.665232,20 626.398773,20 Z" id="Rectangle" fill="#1BB776"></path>
            <path d="M559.398773,20 C551.597081,20 545.272559,26.3245213 545.272559,34.1262136 C545.272559,35.8233061 545.578367,37.5065114 546.175324,39.0951477 L596.532108,173.105854 C600.803229,184.472265 611.673555,192 623.815951,192 C631.553591,192 637.826188,185.727403 637.826188,177.989763 C637.826188,176.316912 637.526594,174.657582 636.941595,173.090353 L586.931041,39.1108135 C582.641434,27.6188476 571.665232,20 559.398773,20 Z" id="Rectangle" fill="#1BB776" transform="translate(591.500000, 106.000000) scale(-1, 1) translate(-591.500000, -106.000000) "></path>
            <path d="M758.398773,20 C750.597081,20 744.272559,26.3245213 744.272559,34.1262136 C744.272559,35.8233061 744.578367,37.5065114 745.175324,39.0951477 L795.532108,173.105854 C799.803229,184.472265 810.673555,192 822.815951,192 C830.553591,192 836.826188,185.727403 836.826188,177.989763 C836.826188,176.316912 836.526594,174.657582 835.941595,173.090353 L785.931041,39.1108135 C781.641434,27.6188476 770.665232,20 758.398773,20 Z" id="Rectangle" fill="#1BB776"></path>
            <path d="M692.398773,20 C684.597081,20 678.272559,26.3245213 678.272559,34.1262136 C678.272559,35.8233061 678.578367,37.5065114 679.175324,39.0951477 L729.532108,173.105854 C733.803229,184.472265 744.673555,192 756.815951,192 C764.553591,192 770.826188,185.727403 770.826188,177.989763 C770.826188,176.316912 770.526594,174.657582 769.941595,173.090353 L719.931041,39.1108135 C715.641434,27.6188476 704.665232,20 692.398773,20 Z" id="Rectangle" fill="#1BB776" transform="translate(724.500000, 106.000000) scale(-1, 1) translate(-724.500000, -106.000000) "></path>
        </g>
    </g>
</svg>